<?xml version="1.0" encoding="utf-8"?>
<!-- Generator: Adobe Illustrator 28.2.0, SVG Export Plug-In . SVG Version: 6.00 Build 0)  -->
<svg version="1.1" id="Layer_1" xmlns="http://www.w3.org/2000/svg" xmlns:xlink="http://www.w3.org/1999/xlink" x="0px" y="0px"
	 viewBox="0 0 1000 1000" style="enable-background:new 0 0 1000 1000;" xml:space="preserve">
<style type="text/css">
	.st0{fill:#29D4F5;}
	.st1{fill:#111318;}
</style>
<g>
	<path class="st0" d="M881.38,0H118.62C53.11,0,0,53.11,0,118.62v762.77C0,946.89,53.11,1000,118.62,1000h762.77
		c65.51,0,118.62-53.11,118.62-118.62V118.62C1000,53.11,946.89,0,881.38,0z M452.91,895.55L126.36,644.31V355.69l125.22-96.34
		v240.59l-0.1,0.08l201.43,154.97V895.55z M452.91,345.05l-124.74,95.97V200.42l124.74-95.98V345.05z M671.83,799.58l-124.74,95.98
		v-240.6l124.74-95.97V799.58z M873.64,644.31l-125.22,96.34V500.06l0.1-0.08L547.09,345.01V104.45l326.54,251.25V644.31z"/>
	<polygon class="st1" points="328.17,441.02 452.91,345.05 452.91,104.45 328.17,200.42 	"/>
	<polygon class="st1" points="251.58,499.94 251.58,259.35 126.36,355.69 126.36,644.31 452.91,895.55 452.91,654.99 251.48,500.02 
			"/>
	<polygon class="st1" points="547.09,895.55 671.83,799.58 671.83,558.99 547.09,654.95 	"/>
	<polygon class="st1" points="547.09,345.01 748.52,499.98 748.42,500.06 748.42,740.65 873.64,644.31 873.64,355.69 547.09,104.45 
			"/>
</g>
</svg>
