<?xml version="1.0" encoding="utf-8"?>
<!-- Generator: Adobe Illustrator 28.2.0, SVG Export Plug-In . SVG Version: 6.00 Build 0)  -->
<svg version="1.1" id="Layer_1" xmlns="http://www.w3.org/2000/svg" xmlns:xlink="http://www.w3.org/1999/xlink" x="0px" y="0px"
	 viewBox="0 0 1500 500" style="enable-background:new 0 0 1500 500;" xml:space="preserve">
<style type="text/css">
	.st0{fill:#29D4F5;}
	.st1{fill:#111318;}
	.st2{fill:#EEF1F8;}
</style>
<g>
	<polygon class="st2" points="596.91,217.95 622.22,217.95 622.22,297.56 641.28,297.56 641.28,217.95 666.59,217.95 666.59,202.57 
		596.91,202.57 	"/>
	<polygon class="st2" points="680.47,297.56 735.59,297.56 735.59,282.05 699.52,282.05 699.52,256.87 731.51,256.87 731.51,241.77 
		699.52,241.77 699.52,217.95 735.59,217.95 735.59,202.44 680.47,202.44 	"/>
	<polygon class="st2" points="829.49,202.57 806.49,202.57 771.92,245.17 771.92,202.57 752.87,202.57 752.87,297.56 771.92,297.56 
		771.92,255.24 806.49,297.56 830.58,297.56 790.3,249.66 	"/>
	<path class="st2" d="M896.86,206.38c-5.17-2.54-11.43-3.81-18.78-3.81H843.1v94.99h19.05v-36.47h15.92c7.8,0,14.27-1.36,19.39-4.08
		c5.12-2.72,8.89-6.3,11.3-10.75c2.4-4.44,3.61-9.21,3.61-14.29c0-5.62-1.29-10.66-3.88-15.11
		C905.91,212.42,902.03,208.92,896.86,206.38z M888.96,242.11c-2.54,2.4-6.44,3.61-11.7,3.61h-15.11v-27.63h15.11
		c10.34,0,15.51,4.63,15.51,13.88C892.77,236.32,891.5,239.7,888.96,242.11z"/>
	<path class="st2" d="M954.15,202.44l-34.16,95.13H940l6.26-18.1h37.83l6.26,18.1h20.14l-34.16-95.13H954.15z M951.43,264.22
		l13.75-39.74l13.75,39.74H951.43z"/>
	<rect x="1023.28" y="202.57" class="st2" width="19.05" height="94.99"/>
	<path class="st2" d="M1125.62,248.64c3.63-5.03,5.44-10.68,5.44-16.94c0-5.44-1.29-10.36-3.88-14.77
		c-2.59-4.4-6.46-7.89-11.64-10.48c-5.17-2.59-11.43-3.88-18.78-3.88h-35.66v94.99h19.05v-37.02h8.98l20.96,37.02h22.05
		l-22.73-38.51C1116.6,257.14,1121.99,253.67,1125.62,248.64z M1096.09,246.26h-15.92v-27.9h15.92c5.17,0,9.03,1.2,11.57,3.61
		c2.54,2.41,3.81,5.78,3.81,10.14c0,4.45-1.27,7.92-3.81,10.41C1105.12,245.01,1101.26,246.26,1096.09,246.26z"/>
	<path class="st0" d="M512.54,167.92H387.32c-10.75,0-19.47,8.72-19.47,19.47v125.22c0,10.75,8.72,19.47,19.47,19.47h125.22
		c10.75,0,19.47-8.72,19.47-19.47V187.39C532.01,176.64,523.29,167.92,512.54,167.92z M442.19,314.94l-53.61-41.25v-47.38
		l20.56-15.82v39.5l-0.02,0.01l33.07,25.44V314.94z M442.19,224.56l-20.48,15.75v-39.5l20.48-15.76V224.56z M478.13,299.18
		l-20.48,15.76v-39.5l20.48-15.75V299.18z M511.26,273.69l-20.56,15.82v-39.5l0.02-0.01l-33.07-25.44v-39.49l53.61,41.25V273.69z"/>
	<polygon class="st1" points="421.72,240.32 442.19,224.56 442.19,185.06 421.72,200.82 	"/>
	<polygon class="st1" points="409.14,249.99 409.14,210.49 388.59,226.31 388.59,273.69 442.19,314.94 442.19,275.44 409.13,250 	
		"/>
	<polygon class="st1" points="457.66,314.94 478.13,299.18 478.13,259.68 457.66,275.44 	"/>
	<polygon class="st1" points="457.66,224.56 490.72,250 490.71,250.01 490.71,289.51 511.26,273.69 511.26,226.31 457.66,185.06 	
		"/>
</g>
</svg>
